<?xml version="1.0" standalone="no"?>
<!DOCTYPE svg PUBLIC "-//W3C//DTD SVG 20010904//EN"
 "http://www.w3.org/TR/2001/REC-SVG-20010904/DTD/svg10.dtd">
<svg version="1.0" xmlns="http://www.w3.org/2000/svg"
 width="260.000000pt" height="260.000000pt" viewBox="0 0 260.000000 260.000000"
 preserveAspectRatio="xMidYMid meet">
<metadata>
Created by potrace 1.14, written by Peter Selinger 2001-2017
</metadata>
<g transform="translate(0.000000,260.000000) scale(0.100000,-0.100000)"
fill="#000000" stroke="none">
<path d="M1190 2597 c-7 -7 -47 -15 -115 -23 -27 -3 -53 -8 -58 -11 -5 -3 -29
-7 -54 -10 -25 -2 -60 -13 -79 -24 -19 -10 -34 -16 -34 -13 0 3 -15 -3 -32
-14 -18 -12 -37 -20 -41 -20 -17 0 -67 -25 -67 -34 0 -5 -4 -7 -9 -3 -5 3 -12
1 -16 -5 -4 -6 -11 -8 -16 -5 -5 4 -9 1 -9 -4 0 -6 -6 -11 -13 -11 -7 0 -23
-9 -35 -20 -12 -12 -22 -18 -22 -15 0 7 -92 -58 -121 -85 -42 -39 -82 -70 -91
-70 -5 0 -7 -4 -4 -9 3 -5 -4 -11 -16 -14 -12 -4 -19 -9 -16 -12 3 -4 -8 -21
-25 -39 -43 -46 -77 -86 -71 -86 3 0 -2 -7 -10 -16 -9 -8 -30 -37 -48 -62 -17
-26 -38 -51 -45 -55 -7 -4 -13 -15 -13 -23 0 -8 -7 -17 -15 -20 -8 -4 -15 -17
-15 -29 0 -13 -5 -27 -10 -30 -6 -3 -10 -17 -10 -31 0 -14 -8 -41 -18 -62 -21
-41 -35 -105 -53 -234 -14 -103 -7 -494 9 -510 6 -6 8 -17 5 -24 -3 -8 -1 -14
5 -14 6 0 8 -9 5 -20 -3 -11 -1 -20 3 -20 5 0 10 -11 10 -25 1 -13 12 -46 25
-72 23 -46 25 -52 28 -72 0 -5 7 -16 13 -23 7 -7 28 -44 47 -81 19 -37 38 -67
43 -67 4 0 8 -6 8 -13 0 -8 9 -22 20 -32 11 -10 20 -22 20 -26 0 -5 14 -22 30
-37 16 -16 30 -32 30 -36 0 -3 14 -19 31 -34 17 -15 41 -37 54 -49 12 -12 26
-19 29 -16 3 4 6 1 6 -6 0 -15 51 -60 68 -61 7 0 10 -5 7 -10 -3 -6 1 -10 9
-10 9 0 16 -3 16 -7 0 -5 23 -21 51 -38 28 -16 57 -36 64 -42 8 -7 20 -13 29
-13 8 0 18 -5 21 -10 4 -6 10 -8 15 -5 5 3 11 1 15 -5 6 -9 63 -38 90 -44 6
-2 21 -8 35 -13 14 -6 41 -14 60 -18 19 -4 40 -11 45 -15 10 -7 57 -18 120
-28 17 -2 121 -6 233 -9 200 -5 203 -5 326 26 69 17 134 31 146 31 25 0 57 15
86 42 12 11 28 21 35 22 32 5 59 18 59 27 0 6 5 7 10 4 6 -3 10 -1 10 5 0 6 5
8 10 5 6 -3 10 -1 10 4 0 6 7 11 15 11 8 0 15 5 15 11 0 5 5 7 10 4 6 -3 10
-1 10 4 0 6 7 11 15 11 8 0 15 5 15 11 0 5 4 8 9 5 5 -3 11 1 15 9 3 8 11 15
18 15 7 0 19 9 26 21 7 12 16 18 19 15 3 -3 17 9 30 27 13 17 26 31 28 30 12
-7 26 -2 20 7 -3 6 -2 10 3 10 15 0 102 91 102 106 0 7 9 16 20 19 11 3 20 13
20 20 0 8 8 19 18 24 9 6 13 11 9 11 -8 0 4 17 53 77 6 7 10 17 10 23 0 5 5
10 10 10 6 0 9 3 8 8 0 4 15 41 34 82 31 65 47 102 53 120 1 3 5 12 9 21 4 9
5 202 4 430 l-3 414 -28 55 c-15 30 -32 62 -37 70 -17 26 -43 85 -42 93 1 4
-3 7 -8 7 -6 0 -10 5 -10 11 0 13 -43 72 -84 117 -16 17 -26 32 -22 32 4 0 -6
12 -23 27 -17 15 -31 33 -31 40 0 7 -6 13 -14 13 -8 0 -18 9 -21 20 -3 11 -10
20 -15 20 -5 0 -24 14 -42 30 -18 17 -36 30 -41 30 -4 0 -5 5 -2 10 3 6 -2 10
-12 10 -10 0 -36 18 -58 40 -22 21 -47 39 -57 40 -9 0 -18 4 -20 8 -3 9 -208
112 -231 116 -7 2 -25 8 -40 14 -15 7 -31 11 -35 10 -4 -1 -19 4 -34 10 -15 6
-49 14 -75 16 -27 3 -48 5 -48 6 0 1 -7 3 -15 5 -8 2 -28 6 -45 10 -39 8 -308
18 -315 12z"/>
</g>
</svg>
